<svg xmlns="http://www.w3.org/2000/svg" xmlns:xlink="http://www.w3.org/1999/xlink" viewBox="0,0,256,256" width="24px" height="24px"><g fill-opacity="0.16863" fill="#000000" fill-rule="nonzero" stroke="none" stroke-width="1" stroke-linecap="butt" stroke-linejoin="miter" stroke-miterlimit="10" stroke-dasharray="" stroke-dashoffset="0" font-family="none" font-weight="none" font-size="none" text-anchor="none" style="mix-blend-mode: normal"><g transform="scale(10.66667,10.66667)"><path d="M12,2c-5.51693,0 -10,4.48308 -10,10c0,5.51693 4.48307,10 10,10c5.51693,0 10,-4.48307 10,-10c0,-5.51692 -4.48307,-10 -10,-10zM16.49805,9c0.128,0 0.25602,0.04898 0.35352,0.14648c0.195,0.195 0.19695,0.51103 0.00195,0.70703l-6,6c-0.098,0.097 -0.22552,0.14648 -0.35352,0.14648c-0.128,0 -0.25552,-0.04948 -0.35352,-0.14648l-3,-3c-0.195,-0.195 -0.195,-0.51203 0,-0.70703c0.195,-0.195 0.51203,-0.195 0.70703,0l2.64453,2.64649l5.64648,-5.64648c0.0975,-0.0975 0.22552,-0.14648 0.35352,-0.14648z"></path></g></g></svg>